<?xml version="1.0" encoding="UTF-8"?>
<svg version="1.1" xmlns="http://www.w3.org/2000/svg" width="799" height="802"
    style="border-radius: 50%; overflow: hidden;"
>
    <path
        d="M0 0 C263.67 0 527.34 0 799 0 C799 264.66 799 529.32 799 802 C535.33 802 271.66 802 0 802 C0 537.34 0 272.68 0 0 Z "
        fill="#FDFDFD" transform="translate(0,0)" />
    <path
        d="M0 0 C9.69564309 6.87714219 17.5457585 14.41813144 21 26 C21 26.66 21 27.32 21 28 C21.66 28 22.32 28 23 28 C25.54158966 35.82749758 26.42782387 42.86221426 26.36076355 51.0665741 C26.36332682 52.23161809 26.3658901 53.39666208 26.36853105 54.59701043 C26.37258967 57.79894174 26.36332329 61.00050056 26.34819686 64.20238793 C26.33515742 67.66712051 26.33963151 71.1318379 26.34190369 74.59658813 C26.34347146 80.58892545 26.33411442 86.58116425 26.31719017 92.57347679 C26.29273707 101.23717876 26.28498847 109.90083343 26.2812262 118.56456617 C26.27467158 132.62323058 26.25473736 146.68184255 26.22631836 160.74047852 C26.19875211 174.39151753 26.17753111 188.04254226 26.16479492 201.69360352 C26.16400675 202.53603331 26.16321858 203.3784631 26.16240653 204.24642106 C26.15849122 208.47293616 26.15470014 212.69945136 26.15097082 216.92596662 C26.11990574 251.9506833 26.06626734 286.97533328 26 322 C11.81 322 -2.38 322 -17 322 C-17.00586624 318.51576981 -17.01173248 315.03153961 -17.01777649 311.44172668 C-17.07293224 279.50326597 -17.14287685 247.56486591 -17.22898628 215.62647324 C-17.24025468 211.44198181 -17.25139309 207.25749004 -17.26245117 203.07299805 C-17.26465486 202.23992808 -17.26685854 201.40685811 -17.269129 200.54854359 C-17.30451792 187.05305717 -17.32937305 173.5575708 -17.35034702 160.06205515 C-17.37209638 146.21821189 -17.40513854 132.37442894 -17.44870156 118.53063697 C-17.47523322 109.98573075 -17.49291742 101.44089971 -17.49934604 92.89595433 C-17.5045953 87.03929949 -17.52079668 81.18273929 -17.54566566 75.32613514 C-17.55969677 71.94525798 -17.56722431 68.56469554 -17.56500816 65.18376732 C-17.56336445 61.52004215 -17.5799784 57.85684456 -17.60127258 54.19319153 C-17.59642501 53.12218116 -17.59157743 52.05117079 -17.58658296 50.94770557 C-17.5912245 43.9548752 -17.5912245 43.9548752 -21 38 C-26.59911236 33.80066573 -30.26092577 32.87395345 -37.1875 32.9375 C-38.45980469 32.94652344 -39.73210937 32.95554687 -41.04296875 32.96484375 C-42.01878906 32.97644531 -42.99460937 32.98804688 -44 33 C-44 33.66 -44 34.32 -44 35 C-44.78375 35.4125 -45.5675 35.825 -46.375 36.25 C-49.6733333 38.44888887 -50.07871568 40.23110958 -51 44 C-51.66 44 -52.32 44 -53 44 C-53 80.3 -53 116.6 -53 154 C-67.19 154 -81.38 154 -96 154 C-96.13629737 139.75972034 -96.24605748 125.51988362 -96.31087303 111.27909565 C-96.34200275 104.66441152 -96.38413623 98.05020207 -96.45263672 91.43579102 C-96.51848853 85.03608312 -96.55384353 78.63682779 -96.56926346 72.23680687 C-96.58023277 69.81189043 -96.60164797 67.38699488 -96.63438034 64.96227455 C-96.87417944 46.4387157 -96.3180321 25.41846272 -83 11 C-82.3709375 10.28972656 -81.741875 9.57945312 -81.09375 8.84765625 C-60.59928878 -12.98870422 -24.88259782 -15.89217014 0 0 Z "
        fill="#040404" transform="translate(300,249)" />
    <path
        d="M0 0 C67 0 67 0 74 1 C74 1.66 74 2.32 74 3 C75.0725 3.061875 76.145 3.12375 77.25 3.1875 C87.00798421 4.4460386 96.70996605 9.47078553 104 16 C105.04237402 17.64049815 106.04749331 19.30574241 107 21 C108.0828125 22.0828125 108.0828125 22.0828125 109.1875 23.1875 C109.785625 23.785625 110.38375 24.38375 111 25 C111 25.66 111 26.32 111 27 C111.66 27 112.32 27 113 27 C116.45069677 29.48666399 117.00942218 32.77644322 118.0625 36.75 C118.38347656 37.94109375 118.70445312 39.1321875 119.03515625 40.359375 C119.35355469 41.56078125 119.67195313 42.7621875 120 44 C120.34442139 44.97960693 120.68884277 45.95921387 121.04370117 46.96850586 C122.55114094 52.26310936 122.28547932 57.68284086 122.265625 63.14453125 C122.26753845 64.30949631 122.2694519 65.47446136 122.27142334 66.67472839 C122.27278089 69.13317074 122.26911459 71.59162036 122.26074219 74.05004883 C122.25006598 77.78939151 122.26063748 81.52825059 122.2734375 85.26757812 C122.27211526 87.66406355 122.26955154 90.06054868 122.265625 92.45703125 C122.26967346 93.5646431 122.27372192 94.67225494 122.27789307 95.81343079 C122.23835495 102.44733933 121.57188855 108.55615747 120 115 C119.81261261 115.78825668 119.62522522 116.57651337 119.43215942 117.38865662 C118.93071834 119.47227908 118.40681808 121.54893978 117.875 123.625 C117.69324219 124.34300781 117.51148438 125.06101562 117.32421875 125.80078125 C116.88503086 127.53441766 116.44285005 129.26729545 116 131 C115.34 131 114.68 131 114 131 C113.89816406 131.56074219 113.79632813 132.12148438 113.69140625 132.69921875 C110.42364338 143.57329972 99.89074128 151.31827148 90.51171875 156.71875 C63.70015466 170.39556652 24.85538254 163 0 163 C0 109.21 0 55.42 0 0 Z "
        fill="#030303" transform="translate(345,242)" />
    <path
        d="M0 0 C78 0 78 0 84 1 C84 1.66 84 2.32 84 3 C85.53140625 3.10441406 85.53140625 3.10441406 87.09375 3.2109375 C91.49064896 4.09911109 94.12819911 5.83723046 97.5 8.625 C98.06315918 9.07576904 98.62631836 9.52653809 99.20654297 9.9909668 C108.27883838 17.34960641 113.83052747 23.28484834 116 35 C116.66 35 117.32 35 118 35 C121.5014865 50.9319406 119.76304274 66.17997694 111 79.9375 C110.01824152 81.30494932 109.01954717 82.66048855 108 84 C107.5771875 84.57492187 107.154375 85.14984375 106.71875 85.7421875 C103.92320589 89.34413857 100.7724348 91.51362252 97 94 C96.505 95.485 96.505 95.485 96 97 C96.66 97 97.32 97 98 97 C99.41785021 99.66604314 100.83430492 102.33281272 102.25 105 C102.64574219 105.74378906 103.04148437 106.48757813 103.44921875 107.25390625 C111 121.48898566 111 121.48898566 111 124 C111.66 124 112.32 124 113 124 C113.18175781 124.61488281 113.36351562 125.22976563 113.55078125 125.86328125 C113.80214844 126.67152344 114.05351563 127.47976563 114.3125 128.3125 C114.55613281 129.11300781 114.79976562 129.91351563 115.05078125 130.73828125 C116.06588215 133.15697845 117.13860129 134.19940075 119 136 C122.18176993 141.40051157 124.54397318 146.91116058 126 153 C126.66 153 127.32 153 128 153 C131 158.625 131 158.625 131 162 C114.83 162 98.66 162 82 162 C77 153 77 153 75.5 149.4375 C73.9622471 145.91348295 72.11311591 142.88960472 69.98828125 139.69921875 C69 138 69 138 69 136 C68.34 136 67.68 136 67 136 C66.773125 135.05125 66.54625 134.1025 66.3125 133.125 C64.86657605 128.09438961 62.40437211 123.62810487 60 119 C58.72043583 116.50437191 57.45263384 114.00296725 56.1875 111.5 C55.87337158 110.88825928 55.55924316 110.27651855 55.2355957 109.64624023 C53 105.22652024 53 105.22652024 53 103 C49.7 103 46.4 103 43 103 C43 122.47 43 141.94 43 162 C28.81 162 14.62 162 0 162 C0 108.54 0 55.08 0 0 Z "
        fill="#040404" transform="translate(605,243)" />
    <path
        d="M0 0 C1.88235352 -0.00483398 1.88235352 -0.00483398 3.80273438 -0.00976562 C26.66507342 0.11993305 26.66507342 0.11993305 36.125 5.625 C37.14722656 6.19863281 38.16945313 6.77226562 39.22265625 7.36328125 C46.88282858 12.62108867 54.55571098 21.56073572 56.61520386 30.78910828 C58.33733201 40.86468951 58.3184729 50.76313951 58.2578125 60.95703125 C58.25407385 62.82175036 58.25123092 64.68647145 58.24923706 66.55119324 C58.24166759 71.41563516 58.22207801 76.27995417 58.1998291 81.14434814 C58.17922513 86.12551207 58.17020449 91.1066962 58.16015625 96.08789062 C58.13882461 105.82948055 58.10477129 115.57097998 58.0625 125.3125 C57.4025 125.3125 56.7425 125.3125 56.0625 125.3125 C56.07152344 125.90675781 56.08054687 126.50101563 56.08984375 127.11328125 C55.76186059 136.28254966 51.84317168 142.68113552 45.29296875 148.97265625 C37.39692291 155.64254236 37.39692291 155.64254236 33.0625 156.3125 C33.0625 156.9725 33.0625 157.6325 33.0625 158.3125 C23.12860322 160.97336521 13.64978389 161.52451635 3.39135742 161.55273438 C1.26506275 161.56243131 -0.86025947 161.59352818 -2.98632812 161.625 C-11.04590417 161.68708085 -18.26463982 160.98833285 -25.9375 158.3125 C-26.70618408 158.06338867 -27.47486816 157.81427734 -28.2668457 157.55761719 C-31.9378675 156.29747114 -34.30176399 155.09503649 -36.9375 152.3125 C-39.04362477 150.50437376 -41.16526553 148.71626402 -43.29296875 146.93359375 C-43.83566406 146.39863281 -44.37835937 145.86367188 -44.9375 145.3125 C-44.9375 144.6525 -44.9375 143.9925 -44.9375 143.3125 C-45.5975 143.3125 -46.2575 143.3125 -46.9375 143.3125 C-47.93212207 141.48750537 -48.90744701 139.65198897 -49.875 137.8125 C-50.69291016 136.28109375 -50.69291016 136.28109375 -51.52734375 134.71875 C-54.18057647 128.3098333 -54.09041236 121.47180151 -54.11450195 114.62426758 C-54.12107315 113.79542053 -54.12764435 112.96657349 -54.13441467 112.11260986 C-54.15397933 109.39408245 -54.16577221 106.67560981 -54.17578125 103.95703125 C-54.17985678 103.02076086 -54.1839323 102.08449047 -54.18813133 101.11984825 C-54.20892015 96.16412966 -54.22325291 91.20843817 -54.23266602 86.25268555 C-54.24371725 81.16688738 -54.27812328 76.08152824 -54.31783772 70.9958849 C-54.34412809 67.05532585 -54.3523688 63.11486958 -54.35594749 59.17423058 C-54.36078111 57.30096152 -54.37230151 55.42769604 -54.39098549 53.55451393 C-54.51856269 39.91722973 -54.01596596 26.12801282 -45.02734375 14.93359375 C-32.3940891 2.11691617 -17.51177158 -0.22416502 0 0 Z "
        fill="#060606" transform="translate(653.9375,409.6875)" />
    <path
        d="M0 0 C1.03447266 0.46019531 1.03447266 0.46019531 2.08984375 0.9296875 C4.30996228 2.1736803 5.618316 3.55516453 7.25 5.5 C7.77078125 6.1084375 8.2915625 6.716875 8.828125 7.34375 C10 9 10 9 10 11 C10.66 11 11.32 11 12 11 C12.62817704 12.68631992 13.25236893 14.37412451 13.875 16.0625 C14.22304688 17.00222656 14.57109375 17.94195312 14.9296875 18.91015625 C17.14726338 25.31199026 18.29462058 30.77101093 18.25878906 37.4987793 C18.2622937 38.31933304 18.26579834 39.13988678 18.26940918 39.98530579 C18.27816707 42.68169777 18.27239566 45.37782436 18.265625 48.07421875 C18.266974 49.9636083 18.26891649 51.8529975 18.27142334 53.74238586 C18.27436712 57.69897777 18.27010337 61.65547919 18.26074219 65.61206055 C18.24938729 70.6541429 18.2558867 75.69601136 18.26788712 80.73808575 C18.27515937 84.64086987 18.27279264 88.54360442 18.26763153 92.44639015 C18.26630779 94.30370929 18.26789745 96.1610331 18.27259064 98.01834679 C18.32057714 122.35884571 18.32057714 122.35884571 15 129 C14.34 129 13.68 129 13 129 C12.92007813 129.55816406 12.84015625 130.11632812 12.7578125 130.69140625 C10.65184878 137.10699675 3.53267093 143.35661966 -2.0546875 147.046875 C-6.15276962 149.05477066 -10.58341088 149.95045341 -15 151 C-16.07290283 151.33845947 -17.14580566 151.67691895 -18.2512207 152.02563477 C-21.94873257 152.98667481 -25.01643473 153.25811511 -28.82421875 153.265625 C-30.10103516 153.26820313 -31.37785156 153.27078125 -32.69335938 153.2734375 C-34.01142578 153.26570312 -35.32949219 153.25796875 -36.6875 153.25 C-37.98623047 153.25773438 -39.28496094 153.26546875 -40.62304688 153.2734375 C-56.43059665 153.24167949 -70.0139534 151.00122113 -82 140 C-93.07177719 128.30979922 -93.44818969 117.35778373 -93.36328125 102.0546875 C-93.36276152 100.19776408 -93.36328357 98.34084011 -93.36479187 96.48391724 C-93.36470243 92.59889466 -93.35433612 88.71408078 -93.33618164 84.82910156 C-93.31359112 79.89048874 -93.31293633 74.95218282 -93.31969929 70.01353264 C-93.32307018 66.17838903 -93.31634949 62.34331319 -93.30657005 58.50818253 C-93.3027641 56.68963096 -93.30155034 54.87107178 -93.3031559 53.05251694 C-93.30852007 16.695008 -93.30852007 16.695008 -84.8671875 6.3984375 C-79.45918419 1.19387005 -74.09432208 -1.75748165 -67 -4 C-65.99324219 -4.35835938 -64.98648437 -4.71671875 -63.94921875 -5.0859375 C-42.8712983 -12.48814618 -19.73670928 -10.30655867 0 0 Z "
        fill="#040404" transform="translate(567,418)" />
    <path
        d="M0 0 C1.95389648 -0.01740234 1.95389648 -0.01740234 3.94726562 -0.03515625 C12.90613355 -0.00840005 20.89476344 1.15906114 29.5625 3.375 C29.5625 4.035 29.5625 4.695 29.5625 5.375 C30.34625 5.41625 31.13 5.4575 31.9375 5.5 C40.93545597 7.67192041 48.52485349 13.67554026 53.5625 21.375 C58.82722706 30.48699172 58.11083223 40.14603611 58.0234375 50.3125 C58.0210469 52.16080598 58.02014905 54.00911442 58.0206604 55.85742188 C58.01754318 59.72395144 58.00107318 63.59010744 57.97412109 67.45654297 C57.9403349 72.36009377 57.93248812 77.26323181 57.93401146 82.16688538 C57.93346142 85.98500354 57.92239105 89.80303528 57.90800858 93.62112427 C57.90173564 95.42602894 57.89772455 97.23094321 57.89622116 99.03585815 C57.88037089 108.12555198 57.65314329 117.13981924 56.72900391 126.1875 C56.66020712 126.91042236 56.59141033 127.63334473 56.52052879 128.37817383 C55.96049941 133.24185579 54.64759543 137.00888695 52.5625 141.375 C51.9025 141.375 51.2425 141.375 50.5625 141.375 C50.376875 142.07625 50.19125 142.7775 50 143.5 C48.03695542 147.42608917 45.20042597 149.94971602 41.5625 152.375 C40.49128906 152.61476563 40.49128906 152.61476563 39.3984375 152.859375 C38.79257812 153.02953125 38.18671875 153.1996875 37.5625 153.375 C37.2325 154.365 36.9025 155.355 36.5625 156.375 C33.8671875 157.5078125 33.8671875 157.5078125 30.4375 158.5 C28.76300781 158.99886719 28.76300781 158.99886719 27.0546875 159.5078125 C19.29020286 161.435906 11.72422376 161.56127167 3.76635742 161.56030273 C1.76542053 161.5624832 -0.23547674 161.58098312 -2.23632812 161.59960938 C-18.31582228 161.62371656 -30.32896042 158.66404077 -42.44140625 147.65625 C-44.50961733 145.2925802 -45.28801922 143.25610204 -46.4375 140.375 C-47.4275 140.045 -48.4175 139.715 -49.4375 139.375 C-55.24953701 131.17691859 -53.98097398 120.10021814 -53.8984375 110.5859375 C-53.89604718 108.75526052 -53.89514899 106.92458105 -53.8956604 105.09390259 C-53.8925439 101.26605749 -53.87607678 97.43858993 -53.84912109 93.61083984 C-53.81528854 88.74968927 -53.80748944 83.88895495 -53.80901146 79.02770042 C-53.80846229 75.24740765 -53.79740619 71.4672025 -53.78300858 67.68693924 C-53.77672449 65.89712815 -53.77272179 64.1073073 -53.77122116 62.31748581 C-53.70382506 23.92958647 -53.70382506 23.92958647 -44.24609375 13.9765625 C-39.45613996 9.73491875 -34.85014412 6.34422213 -28.4375 5.375 C-28.4375 4.715 -28.4375 4.055 -28.4375 3.375 C-18.85198392 0.69614065 -9.92822952 -0.08816385 0 0 Z "
        fill="#040404" transform="translate(399.4375,409.625)" />
    <path
        d="M0 0 C36.96 0 73.92 0 112 0 C112 13.86 112 27.72 112 42 C89.56 42 67.12 42 44 42 C44 47.61 44 53.22 44 59 C63.14 59 82.28 59 102 59 C102 72.86 102 86.72 102 101 C82.86 101 63.72 101 44 101 C44 107.27 44 113.54 44 120 C66.44 120 88.88 120 112 120 C112 133.86 112 147.72 112 162 C75.04 162 38.08 162 0 162 C0 108.54 0 55.08 0 0 Z "
        fill="#060606" transform="translate(481,243)" />
    <path
        d="M0 0 C14.19 0 28.38 0 43 0 C43.0093457 3.26003906 43.01869141 6.52007812 43.02832031 9.87890625 C43.06211353 20.65972155 43.11767579 31.4403459 43.18390274 42.2210083 C43.2233826 48.75623569 43.25556884 55.29132822 43.27099609 61.82666016 C43.28615893 68.13566649 43.3205989 74.44430209 43.36830902 80.75314331 C43.38312647 83.15799738 43.39104122 85.56290438 43.39188385 87.96780396 C43.39425403 91.34091546 43.42134006 94.7130029 43.45410156 98.0859375 C43.4490712 99.07640579 43.44404083 100.06687408 43.43885803 101.08735657 C43.53048963 107.2002088 44.48382001 111.90468486 48 117 C51.9163829 120.42683504 55.98716074 120.51849756 61 120.5 C61.69867188 120.52835937 62.39734375 120.55671875 63.1171875 120.5859375 C66.7406657 120.599611 68.80326123 120.13334516 71.8125 118.09375 C76.87747309 110.93043091 77.4453313 102.76692681 77.43237305 94.22607422 C77.4425647 93.20048904 77.45275635 92.17490387 77.46325684 91.11824036 C77.49319844 87.76366581 77.50262399 84.40937768 77.51171875 81.0546875 C77.52857938 78.71484441 77.54673147 76.3750103 77.56611633 74.03518677 C77.6134719 67.90326748 77.6433747 61.77138463 77.66955566 55.63934326 C77.69943414 49.37146819 77.7459394 43.10371844 77.79101562 36.8359375 C77.87688453 24.55734307 77.94276447 12.27876132 78 0 C92.52 0 107.04 0 122 0 C122.04517981 14.23859207 122.08187532 28.47713655 122.10362434 42.71578407 C122.11406263 49.32731412 122.1282228 55.9387926 122.15087891 62.55029297 C122.17260545 68.93043907 122.18456829 75.31053555 122.18975449 81.69071579 C122.19345056 84.12517452 122.20066799 86.55963053 122.21146011 88.99406815 C122.22597231 92.40316899 122.22797803 95.81206465 122.22705078 99.22119141 C122.23424133 100.22820099 122.24143188 101.23521057 122.24884033 102.2727356 C122.23411418 107.27445038 121.9334304 111.30349578 120 116 C119.70703215 117.41225528 119.43428593 118.82894693 119.1875 120.25 C116.73303362 131.50278431 109.51844963 141.42804478 101 149 C100.01 149.33 99.02 149.66 98 150 C98 150.66 98 151.32 98 152 C97.45730469 152.26554688 96.91460937 152.53109375 96.35546875 152.8046875 C95.64003906 153.15789062 94.92460937 153.51109375 94.1875 153.875 C93.12595703 154.39707031 93.12595703 154.39707031 92.04296875 154.9296875 C89.78753582 156.0656486 89.78753582 156.0656486 87 158 C86.01 158 85.02 158 84 158 C84 158.66 84 159.32 84 160 C76.38232625 163.36073842 68.80531773 163.18273292 60.625 163.1875 C58.97757813 163.20586914 58.97757813 163.20586914 57.296875 163.22460938 C51.1653 163.23563739 45.86746008 162.80592141 40 161 C40 160.34 40 159.68 40 159 C39.05125 158.95875 38.1025 158.9175 37.125 158.875 C27.49904764 157.50823192 18.66728782 149.42610128 13 142 C12.484375 141.525625 11.96875 141.05125 11.4375 140.5625 C9.01611402 137.93055872 7 134.63043556 7 131 C6.01 130.67 5.02 130.34 4 130 C3.0859375 127.78515625 3.0859375 127.78515625 2.375 125.0625 C1.43114402 121.43880225 1.43114402 121.43880225 0 118 C-0.09255054 116.42879781 -0.12192535 114.8536794 -0.12025452 113.27975464 C-0.12162918 112.28413513 -0.12300385 111.28851563 -0.12442017 110.26272583 C-0.12082489 109.16652924 -0.11722961 108.07033264 -0.11352539 106.94091797 C-0.11367142 105.78970459 -0.11381744 104.63849121 -0.1139679 103.45239258 C-0.11326904 99.63230531 -0.1054779 95.81226629 -0.09765625 91.9921875 C-0.09579197 89.34945706 -0.09436812 86.70672627 -0.09336853 84.06399536 C-0.09025748 77.80959377 -0.08204714 71.55520961 -0.07201904 65.3008157 C-0.06085088 58.18119741 -0.05534568 51.06157829 -0.05032361 43.94195342 C-0.03986435 29.29462534 -0.02152167 14.64731613 0 0 Z "
        fill="#060606" transform="translate(66,243)" />
    <path
        d="M0 0 C24 0 24 0 30 3 C31.03515625 4.92578125 31.03515625 4.92578125 32.0625 7.3125 C32.40410156 8.09238281 32.74570312 8.87226563 33.09765625 9.67578125 C35.0365347 14.66986211 35.16066501 19.32966426 35.16796875 24.6484375 C35.17296135 25.92190536 35.17296135 25.92190536 35.17805481 27.22109985 C35.18311529 29.02158061 35.18546341 30.82207073 35.18530273 32.62255859 C35.18746453 35.33056955 35.2055603 38.03815617 35.22460938 40.74609375 C35.29690473 63.10928581 35.29690473 63.10928581 32 73 C29.07920195 75.07530387 27.62453269 76 24 76 C24 76.66 24 77.32 24 78 C16.08 78 8.16 78 0 78 C0 52.26 0 26.52 0 0 Z "
        fill="#F8F8F8" transform="translate(389,285)" />
    <path
        d="M0 0 C0.78246094 -0.03738281 1.56492187 -0.07476562 2.37109375 -0.11328125 C4.5625 0.3125 4.5625 0.3125 6.17619324 1.7190094 C8.34053829 5.76804724 7.97118669 9.71247228 7.93481445 14.23413086 C7.93846512 15.24105484 7.94211578 16.24797882 7.94587708 17.28541565 C7.95398749 20.61622955 7.94036707 23.94655769 7.92578125 27.27734375 C7.92526266 29.59135437 7.92578031 31.90536543 7.92729187 34.21937561 C7.92720212 39.07071504 7.91676791 43.92188838 7.89868164 48.77319336 C7.87600723 54.991981 7.87544788 61.21052563 7.88219929 67.42934322 C7.88554103 72.20856384 7.87890505 76.98772906 7.86907005 81.76693916 C7.86522038 84.05986809 7.86406887 86.35280318 7.8656559 88.64573479 C7.86602677 91.85110076 7.85339946 95.0561554 7.8371582 98.26147461 C7.83963562 99.20969086 7.84211304 100.1579071 7.84466553 101.13485718 C7.77577488 109.65443122 7.77577488 109.65443122 5.5625 113.3125 C2.68038698 114.27320434 0.86399956 114.41831883 -2.125 114.375 C-2.93324219 114.36597656 -3.74148438 114.35695313 -4.57421875 114.34765625 C-5.18910156 114.33605469 -5.80398438 114.32445312 -6.4375 114.3125 C-6.7675 113.3225 -7.0975 112.3325 -7.4375 111.3125 C-8.0975 111.3125 -8.7575 111.3125 -9.4375 111.3125 C-9.50704535 98.00389652 -9.56033448 84.69533636 -9.59293652 71.3865881 C-9.60858475 65.20663466 -9.62980797 59.02680566 -9.66381836 52.84692383 C-9.69644135 46.88173259 -9.71435936 40.91666097 -9.72213173 34.95138741 C-9.72766991 32.67683594 -9.73848462 30.40229093 -9.75469017 28.12779045 C-9.77650309 24.93913559 -9.77946525 21.75097346 -9.77807617 18.56225586 C-9.788862 17.62429672 -9.79964783 16.68633759 -9.8107605 15.71995544 C-9.78460456 10.16224999 -9.12866285 6.21567012 -6.4375 1.3125 C-4.12316978 0.15533489 -2.57689188 0.08039564 0 0 Z "
        fill="#F8F8F8" transform="translate(530.4375,432.6875)" />
    <path
        d="M0 0 C2.8442752 0.03568087 4.06582297 0.1844816 6.625 1.5625 C9.15539845 4.29533032 9.31369638 6.89160831 9.32794189 10.44943237 C9.33650711 11.73214523 9.33650711 11.73214523 9.34524536 13.04077148 C9.34636322 13.97590576 9.34748108 14.91104004 9.34863281 15.87451172 C9.35359772 16.86178253 9.35856262 17.84905334 9.36367798 18.86624146 C9.37830203 22.13739718 9.38510171 25.40850443 9.390625 28.6796875 C9.39637585 30.95028688 9.40213359 33.22088625 9.40789795 35.4914856 C9.41840835 40.25457994 9.4242509 45.0176574 9.42773438 49.78076172 C9.43322193 55.88638331 9.45725556 61.99178221 9.48570633 68.09733391 C9.50432144 72.78818415 9.50953769 77.4789806 9.51107025 82.16986465 C9.51409939 84.42094262 9.52213666 86.67201959 9.53525543 88.92306137 C9.55229352 92.07111359 9.55044108 95.21861971 9.54394531 98.36669922 C9.5531601 99.29778503 9.56237488 100.22887085 9.5718689 101.18817139 C9.54066238 106.01152529 9.39002452 109.36395559 6.1875 113.25 C3.00928465 114.83910767 -0.35189729 114.65420974 -3.8125 114.25 C-6.48681489 112.43836733 -6.77170359 111.37238923 -7.8125 108.25 C-7.90665738 106.86749853 -7.94732805 105.48095337 -7.95294189 104.09526062 C-7.95865204 103.24997803 -7.96436218 102.40469543 -7.97024536 101.53379822 C-7.97136322 100.60958572 -7.97248108 99.68537323 -7.97363281 98.7331543 C-7.97859772 97.75724335 -7.98356262 96.7813324 -7.98867798 95.77584839 C-8.00330283 92.54196471 -8.01010223 89.30813009 -8.015625 86.07421875 C-8.02137627 83.82843525 -8.027134 81.58265176 -8.03289795 79.33686829 C-8.04340891 74.62504853 -8.04925093 69.91324585 -8.05273438 65.20141602 C-8.05821871 59.1653939 -8.08224523 53.12959741 -8.11070633 47.09364605 C-8.12933508 42.45336753 -8.13453845 37.81314333 -8.13607025 33.17283058 C-8.13909685 30.94769876 -8.14712561 28.7225679 -8.16025543 26.49747276 C-8.17732024 23.38315063 -8.17543441 20.26937929 -8.16894531 17.1550293 C-8.1781601 16.2368895 -8.18737488 15.31874969 -8.1968689 14.37278748 C-8.15391944 7.78870497 -7.70889921 0.50550159 0 0 Z "
        fill="#F4F4F4" transform="translate(400.8125,432.75)" />
    <path
        d="M0 0 C1.34580516 0.64111676 2.68115184 1.30511746 4 2 C4.02335113 15.7688674 4.04092362 29.53773174 4.05181217 43.30661488 C4.05703734 49.69961546 4.06412839 56.09260276 4.07543945 62.4855957 C4.08628128 68.65175698 4.0922796 74.81790547 4.09487724 80.98407555 C4.09672914 83.34006642 4.10034528 85.69605656 4.10573006 88.05204201 C4.11295762 91.34436192 4.11399021 94.63662854 4.11352539 97.92895508 C4.11712067 98.90934753 4.12071594 99.88973999 4.12442017 100.89984131 C4.1230455 101.79586563 4.12167084 102.69188995 4.12025452 103.61506653 C4.12117631 104.3939816 4.1220981 105.17289667 4.12304783 105.97541523 C4 108 4 108 3 111 C-0.65969749 113.78137009 -4.62166836 113.34748664 -9 113 C-11.09243531 111.47551021 -11.88572966 110.59797976 -12.37473011 108.03902721 C-12.37456237 107.29002809 -12.37439463 106.54102896 -12.3742218 105.76933289 C-12.38123611 104.90722198 -12.38825043 104.04511108 -12.39547729 103.15687561 C-12.38401169 101.74250465 -12.38401169 101.74250465 -12.37231445 100.29956055 C-12.37596512 99.30414246 -12.37961578 98.30872437 -12.38337708 97.28314209 C-12.39149948 93.98416209 -12.37785528 90.68567078 -12.36328125 87.38671875 C-12.36276272 85.09609477 -12.36328013 82.80547034 -12.36479187 80.5148468 C-12.36470206 75.70880508 -12.35425742 70.90293081 -12.33618164 66.09692383 C-12.31353268 59.93986037 -12.31294261 53.78304252 -12.31969929 47.62594891 C-12.32304372 42.89300866 -12.31639957 38.16012425 -12.30657005 33.4271946 C-12.30272307 31.15742091 -12.30156776 28.887641 -12.3031559 26.61786461 C-12.30352736 23.44133086 -12.29088206 20.26510977 -12.2746582 17.08862305 C-12.27713562 16.15178177 -12.27961304 15.21494049 -12.28216553 14.24971008 C-12.24331462 9.47577004 -12.01726277 5.42837566 -10 1 C-6.86358252 -0.56820874 -3.42820517 -0.38163039 0 0 Z "
        fill="#FBFBFB" transform="translate(660,434)" />
    <path
        d="M0 0 C4.41670725 -0.02693114 8.83325082 -0.04680597 13.25 -0.0625 C15.13138672 -0.07506836 15.13138672 -0.07506836 17.05078125 -0.08789062 C18.85869141 -0.09272461 18.85869141 -0.09272461 20.703125 -0.09765625 C22.36843262 -0.10551147 22.36843262 -0.10551147 24.06738281 -0.11352539 C26.61577939 -0.01487367 28.63435571 0.06901957 31 1 C33.21477492 4.32216238 33.29667707 5.55033323 33.3125 9.4375 C33.32925781 10.38496094 33.34601562 11.33242188 33.36328125 12.30859375 C32.92536751 15.55292242 32.34268856 16.71823455 30 19 C26.90551758 19.45410156 26.90551758 19.45410156 23.14453125 19.390625 C22.48289474 19.38496521 21.82125824 19.37930542 21.13957214 19.37347412 C19.02980668 19.35111247 16.92175048 19.30092371 14.8125 19.25 C13.38088394 19.2299344 11.9492412 19.21168372 10.51757812 19.1953125 C7.01053334 19.15465111 3.5071754 19.07638132 0 19 C0 12.73 0 6.46 0 0 Z "
        fill="#F0F0F0" transform="translate(648,285)" />
    <path
        d="M0 0 C67 0 67 0 74 1 C74 1.33 74 1.66 74 2 C50.24 2 26.48 2 2 2 C2 54.8 2 107.6 2 162 C25.76 161.67 49.52 161.34 74 161 C53.46859816 174.68760123 24.67567403 163 0 163 C0 109.21 0 55.42 0 0 Z "
        fill="#676767" transform="translate(345,242)" />
    <path
        d="M0 0 C0.78246094 -0.03738281 1.56492187 -0.07476562 2.37109375 -0.11328125 C4.5625 0.3125 4.5625 0.3125 6.17619324 1.7190094 C8.34053829 5.76804724 7.97118669 9.71247228 7.93481445 14.23413086 C7.93846512 15.24105484 7.94211578 16.24797882 7.94587708 17.28541565 C7.95398749 20.61622955 7.94036707 23.94655769 7.92578125 27.27734375 C7.92526266 29.59135437 7.92578031 31.90536543 7.92729187 34.21937561 C7.92720212 39.07071504 7.91676791 43.92188838 7.89868164 48.77319336 C7.87600723 54.991981 7.87544788 61.21052563 7.88219929 67.42934322 C7.88554103 72.20856384 7.87890505 76.98772906 7.86907005 81.76693916 C7.86522038 84.05986809 7.86406887 86.35280318 7.8656559 88.64573479 C7.86602677 91.85110076 7.85339946 95.0561554 7.8371582 98.26147461 C7.84087433 99.68379898 7.84087433 99.68379898 7.84466553 101.13485718 C7.80832492 105.62903007 7.70322339 109.23548398 5.5625 113.3125 C4.38832866 110.96415731 4.43920948 109.58892522 4.44224548 106.97189331 C4.44087082 106.06041534 4.43949615 105.14893738 4.43807983 104.20983887 C4.44167511 103.20714966 4.44527039 102.20446045 4.44897461 101.17138672 C4.44875557 99.59087021 4.44875557 99.59087021 4.4485321 97.97842407 C4.4492308 94.4829912 4.45702119 90.9876111 4.46484375 87.4921875 C4.46670808 85.07365956 4.46813191 82.65513124 4.46913147 80.23660278 C4.47295544 73.86121585 4.48278471 67.48585159 4.49383545 61.11047363 C4.50405215 54.60880846 4.50862965 48.10713963 4.51367188 41.60546875 C4.52440707 28.84113614 4.5412907 16.07681928 4.5625 3.3125 C3.1254191 3.25827053 1.68774538 3.21960277 0.25 3.1875 C-0.95076172 3.15269531 -0.95076172 3.15269531 -2.17578125 3.1171875 C-4.72138576 3.15432678 -4.72138576 3.15432678 -7.4375 5.3125 C-7.0625 3.375 -7.0625 3.375 -6.4375 1.3125 C-4.12316978 0.15533489 -2.57689188 0.08039564 0 0 Z "
        fill="#C9C9C9" transform="translate(530.4375,432.6875)" />
    <path
        d="M0 0 C2.27024968 -0.08097324 4.54132075 -0.13917704 6.8125 -0.1875 C8.07707031 -0.22230469 9.34164062 -0.25710938 10.64453125 -0.29296875 C14 0 14 0 17 3 C11.39 3 5.78 3 0 3 C0 2.01 0 1.02 0 0 Z "
        fill="#EBEBEB" transform="translate(519,406)" />
    <path
        d="M0 0 C0 3.92423908 -1.58012639 6.07510929 -4 9 C-10.10884354 15 -10.10884354 15 -13 15 C-12.62497556 12.39721847 -12.28349753 11.25365569 -10.29296875 9.47265625 C-9.59816406 9.00730469 -8.90335938 8.54195313 -8.1875 8.0625 C-4.84573693 5.70466717 -2.38062018 3.37254525 0 0 Z "
        fill="#B7B7B7" transform="translate(714,325)" />
    <path
        d="M0 0 C0.66 0.33 1.32 0.66 2 1 C-1.49191686 6.86143187 -1.49191686 6.86143187 -4.0625 7.5625 C-5.0215625 7.7790625 -5.0215625 7.7790625 -6 8 C-7.0409066 9.64142963 -8.04504326 11.30712215 -9 13 C-9.66 13 -10.32 13 -11 13 C-9.63422544 8.71506993 -7.79318655 6.56854295 -4.375 3.6875 C-3.55773437 2.99011719 -2.74046875 2.29273438 -1.8984375 1.57421875 C-0.95871094 0.79498047 -0.95871094 0.79498047 0 0 Z "
        fill="#4A4A4A" transform="translate(490,418)" />
    <path
        d="M0 0 C0.66 0.33 1.32 0.66 2 1 C0.1875 3.5 0.1875 3.5 -2 6 C-2.99 6 -3.98 6 -5 6 C-5.2475 6.639375 -5.495 7.27875 -5.75 7.9375 C-7 10 -7 10 -9.078125 10.62890625 C-10.02945313 10.81259766 -10.02945313 10.81259766 -11 11 C-7.6189962 6.86378916 -4.33409466 3.18683431 0 0 Z "
        fill="#3E3E3E" transform="translate(230,248)" />
    <path
        d="M0 0 C1.22589844 0.01353516 1.22589844 0.01353516 2.4765625 0.02734375 C3.41628906 0.04474609 3.41628906 0.04474609 4.375 0.0625 C5.035 1.3825 5.695 2.7025 6.375 4.0625 C5.715 3.7325 5.055 3.4025 4.375 3.0625 C2.26544938 2.86511277 2.26544938 2.86511277 -0.0625 2.875 C-0.84496094 2.86082031 -1.62742187 2.84664063 -2.43359375 2.83203125 C-4.91705987 2.92163936 -4.91705987 2.92163936 -7.625 5.0625 C-7.25 3.125 -7.25 3.125 -6.625 1.0625 C-4.21954362 -0.14022819 -2.67503047 -0.03821472 0 0 Z "
        fill="#ABABAB" transform="translate(530.625,432.9375)" />
    <path
        d="M0 0 C0.66 0.33 1.32 0.66 2 1 C1.21654285 2.17219543 0.42297164 3.33763668 -0.375 4.5 C-0.81585938 5.1496875 -1.25671875 5.799375 -1.7109375 6.46875 C-2.13632812 6.9740625 -2.56171875 7.479375 -3 8 C-3.66 8 -4.32 8 -5 8 C-5.12375 8.804375 -5.2475 9.60875 -5.375 10.4375 C-5.58125 11.283125 -5.7875 12.12875 -6 13 C-6.99 13.495 -6.99 13.495 -8 14 C-6.7542451 7.89580099 -4.30284347 4.45168397 0 0 Z "
        fill="#5E5E5E" transform="translate(357,422)" />
    <path
        d="M0 0 C0.66 0.33 1.32 0.66 2 1 C0.02 3.31 -1.96 5.62 -4 8 C-4.99 7.67 -5.98 7.34 -7 7 C-4.69 4.69 -2.38 2.38 0 0 Z "
        fill="#4B4B4B" transform="translate(616,418)" />
</svg>